<?xml version="1.0" standalone="no"?><!DOCTYPE svg PUBLIC "-//W3C//DTD SVG 1.1//EN" "http://www.w3.org/Graphics/SVG/1.1/DTD/svg11.dtd"><svg t="1554706396249" class="icon" style="" viewBox="0 0 1024 1024" version="1.1" xmlns="http://www.w3.org/2000/svg" p-id="1512" xmlns:xlink="http://www.w3.org/1999/xlink" width="200" height="200"><defs><style type="text/css"></style></defs><path d="M290.93013593 267.98593509a16 16 0 1 0-0.01131371 32.00648135l418.13203871 0c114.68706305 0.01131371 208.00253075 93.32678141 208.00253075 208.00253075s-93.3154677 207.99121705-208.00253075 208.00253076l-328.55009481 0a15.984 15.984 0 1 0 0 31.99516763l328.55009481 0c66.1625673 0 126.18179089-26.91531252 169.62643152-70.35995315s70.37126686-103.47517793 70.35995316-169.62643153c0-132.34776202-107.64993637-239.99769839-239.99769839-239.99769839L290.93013593 267.98593509z" p-id="1513" fill="#d81e06"></path><path d="M460.00219574 651.99582897a15.984 15.984 0 0 0 15.99758382 15.99758381l48.00406516-0.0113137a15.952 15.952 0 0 0 15.99758381-15.99758382 15.984 15.984 0 0 0-15.99758381-15.99758382l-48.00406516 0.01131371a15.984 15.984 0 0 0-15.99758382 15.99758382zM407.31425526 663.32085117a15.984 15.984 0 0 0-11.3137085-27.31129231l-224.00011457-0.01131371a15.984 15.984 0 1 0 0 31.99516763l224.00011457 0.01131371a15.952 15.952 0 0 0 11.3137085-4.68387532zM475.99977956 572.00790988a15.952 15.952 0 0 0 15.99758381-15.99758382 15.984 15.984 0 0 0-15.99758381-15.99758382l-112.00571414 0a15.984 15.984 0 1 0 0 31.99516764l112.00571414 0zM251.99966498 571.99659617a15.952 15.952 0 0 0 15.99758382-15.99758382 15.984 15.984 0 0 0-15.99758382-15.99758382l-181.22298273 0a15.984 15.984 0 1 0 0 31.99516764l181.22298273 0zM519.30865569 471.31590424a15.984 15.984 0 0 0-11.3137085-27.31129232l-31.99516763 0A15.984 15.984 0 1 0 475.99977956 475.99977956l31.99516763 0a15.952 15.952 0 0 0 11.3137085-4.68387532zM379.99164923 475.99977956a15.952 15.952 0 0 0 15.99758382-15.99758382 15.984 15.984 0 0 0-15.99758382-15.99758382l-96.00813032 0a15.984 15.984 0 1 0 0 31.99516764l96.00813032 0zM203.99559982 475.99977956a15.952 15.952 0 0 0 15.99758382-15.99758382 15.984 15.984 0 0 0-15.99758382-15.99758382l-48.00406516-0.01131371a15.984 15.984 0 1 0 0 31.99516764l48.00406516 0.01131371zM347.9964816 347.9964816a15.984 15.984 0 1 0 0 31.99516763l191.99363323 0a15.952 15.952 0 0 0 15.99758381-15.99758381 15.984 15.984 0 0 0-15.99758381-15.99758382L347.9964816 347.9964816zM251.98835128 379.99164923a15.952 15.952 0 0 0 15.99758381-15.99758381 15.984 15.984 0 0 0-15.99758381-15.99758382l-64.00164898 0.01131371a15.984 15.984 0 1 0 0 31.99516763l64.00164898-0.01131371z" p-id="1514" fill="#d81e06"></path><path d="M274.41212152 794.84271247m-11.3137085 11.3137085a16 16 0 1 0 22.627417-22.62741699 16 16 0 1 0-22.627417 22.62741699Z" p-id="1515" fill="#d81e06"></path><path d="M322.98187211 843.41246306m-11.3137085 11.3137085a16 16 0 1 0 22.627417-22.627417 16 16 0 1 0-22.627417 22.627417Z" p-id="1516" fill="#d81e06"></path><path d="M205.14959809 253.16497696m-11.3137085 11.3137085a16 16 0 1 0 22.627417-22.627417 16 16 0 1 0-22.627417 22.627417Z" p-id="1517" fill="#d81e06"></path><path d="M443.99329821 188.00932971m-11.3137085 11.3137085a16 16 0 1 0 22.627417-22.62741699 16 16 0 1 0-22.627417 22.62741699Z" p-id="1518" fill="#d81e06"></path><path d="M604.33117506 219.66508609m-11.3137085 11.3137085a16 16 0 1 0 22.627417-22.62741699 16 16 0 1 0-22.627417 22.62741699Z" p-id="1519" fill="#d81e06"></path><path d="M647.76450199 806.15642097m-11.3137085 11.3137085a16 16 0 1 0 22.627417-22.627417 16 16 0 1 0-22.627417 22.627417Z" p-id="1520" fill="#d81e06"></path><path d="M534.627417 806.15642097m-11.3137085 11.3137085a16 16 0 1 0 22.627417-22.627417 16 16 0 1 0-22.627417 22.627417Z" p-id="1521" fill="#d81e06"></path><path d="M726.96046148 817.47012947m-11.3137085 11.3137085a16 16 0 1 0 22.627417-22.627417 16 16 0 1 0-22.627417 22.627417Z" p-id="1522" fill="#d81e06"></path><path d="M783.51769027 217.85489273m-11.3137085 11.3137085a16 16 0 1 0 22.627417-22.62741699 16 16 0 1 0-22.627417 22.62741699Z" p-id="1523" fill="#d81e06"></path><path d="M444.11774901 874.03867197m-11.3137085 11.3137085a16 16 0 1 0 22.627417-22.627417 16 16 0 1 0-22.627417 22.627417Z" p-id="1524" fill="#d81e06"></path><path d="M715.98616424 683.9909966c47.00845881 0.01131371 91.21111792-18.30558035 124.45079349-51.54525592s51.55656963-77.44233468 51.54525592-124.45079349c0-97.02636409-78.95837161-175.9847357-175.99604941-175.99604941a174.864 174.864 0 0 0-124.45079349 51.54525592c-33.23967557 33.23967557-51.53394221 77.44233468-51.54525592 124.45079349a174.8 174.8 0 0 0 51.53394221 124.43947978c33.25098928 33.25098928 77.45364838 51.56788334 124.4621072 51.55656963z m0.01131371-255.9952822a15.984 15.984 0 1 1 0-31.99516764c29.93607269 0 58.08457943 11.63049234 79.22990061 32.77581352s32.78712723 49.28251422 32.76449982 79.21858691a15.952 15.952 0 0 1-15.99758382 15.99758382 15.984 15.984 0 0 1-15.99758382-15.99758382 79.52 79.52 0 0 0-23.39674917-56.59116991 79.584 79.584 0 0 0-56.60248362-23.40806288z" p-id="1525" fill="#d81e06"></path></svg>